<?xml version="1.0" encoding="UTF-8"?>
<svg id="_レイヤー_2" data-name="レイヤー 2" xmlns="http://www.w3.org/2000/svg" viewBox="0 0 1303.94 160.6">
  <defs>
    <style>
      .cls-1 {
        fill: #fff;
      }
    </style>
  </defs>
  <g id="_レイヤー_1-2" data-name="レイヤー 1">
    <g>
      <g>
        <path class="cls-1" d="M47.4,86.2C65.8,32,69.6,19.6,103.4,3.2c-4.2-.6-9-1-14-1C30.2,2.2,10.8,33,10.8,51.6c0,15.6,9.6,23.8,24.2,25.8,2,.2,1.2,2.2-.6,2-15.8-1.6-26-11.6-26-27.8C8.4,32.8,28.4,0,89.6,0c43.8,0,71.2,18.2,71.2,45.2,0,32.4-33,58-70.8,58-13,0-17-2-17-3.8,0-.8.6-1.4,1.6-1.4,1.4,0,2.4.8,7.4.8,37.8,0,56.8-33.2,56.8-60.2,0-19.2-11-31-31.6-34.8-12.8,8.6-19.6,35-36.4,82-21.2,60.6-33.4,74.8-65,74.8-3.8,0-5.8-.8-5.8-2,0-.4.4-.8,1-.8s1.2.4,3.2.4c13.8,0,21.6-8,43.2-72Z"/>
        <path class="cls-1" d="M220.8,115.6c-7.2,19-8.6,25.6-8.6,30.4,0,4,2,6.8,6.4,6.8,7.4,0,20.6-14,33.6-35.8.6-1,1.8.2,1.2,1.2-13.4,22.6-27.6,40.4-41.2,40.4-11.8,0-17.6-6.6-17-18.4.2-4.4,1.4-8.8,1.4-8.8l-.4-.2c-8.6,14.2-21.6,27.4-32.6,27.4-12.2,0-23.6-7.4-23.6-25.8,0-32,34.4-62,59.6-62,10,0,14,6.8,13.6,15h.4c4.4-9.2,19.2-13,25.6-13,1.2,0,1.8.6,1.8,1.2,0,.8-.4,1.2-1.2,2-3.4,3.2-9,13.2-19,39.6ZM203.4,75.4c-17,0-43,33.6-43,64.6,0,11.2,3.2,14.2,7.8,14.2,6.2,0,19.4-11,27.8-27.8,11.2-21.4,14.8-36.2,14.8-42.2,0-5.6-2.6-8.8-7.4-8.8ZM215.2,35.6l-32,20c-1.4,1-2.4.8-1-1l24-29.4c4.6-5.6,8.6-7,16.4-7,8.2,0,10.8,1.8,11.4,6.8l3.8,29.8c.4,1.4-.6,2-1.6,1l-17.8-20c-.8-1-1.8-1-3.2-.2Z"/>
        <path class="cls-1" d="M307.2,118.2c-13.4,22.8-29.4,40.4-45.8,40.4-8.8,0-16-6.4-16-17,0-5.4,1.8-11.6,6.4-24.6l14.8-42h-9.2c-.6,0-1-.2-1-.8s.4-.8,1-.8h9.8l7.4-20.6c1.2-3.4,2.2-4,5.4-4.6,6-1,13.2-4.6,17.2-8.8,1.2-1.2,2.4-.8,1.8.8-4.6,12.6-8.8,23.6-12.2,33.2h15.4c.6,0,1,.2,1,.8s-.4.8-1,.8h-16c-7.8,21-13,35.4-16.6,45.6-4.4,12.2-6,19-6,23.6,0,5,2.6,8.2,6.6,8.2,7.8,0,22.6-13.4,35.8-35.4.6-1,1.8.2,1.2,1.2Z"/>
        <path class="cls-1" d="M313.8,158.6c-10.2,0-16-5.2-16-14.2,0-6.8,3.8-15.8,7.8-27l11-31c3-8.4,12-13,23.4-13,1.4,0,2,.4,2,1.2,0,1.4-4.2,5.6-8,16.4l-14.6,41c-2.4,6.8-3.8,11.6-3.8,14.4,0,3.8,2,6,5.4,6,7,0,21.6-13.2,34.6-35.4.6-1,1.8.2,1.2,1.2-13.4,22.8-28.8,40.4-43,40.4ZM348.4,31.4c4.4,0,9,5,9,10.8s-9.6,13-15.6,13c-4.2,0-8.6-5-8.6-10.8s9.6-13,15.2-13Z"/>
        <path class="cls-1" d="M355.59,117c1.2-2,2.4-4,3.4-6-2.4-3-4-6.4-3.8-10.6.6-13.8,17.4-29.6,37.6-29.6,11.6,0,19.8,3.2,19.8,11.6,0,7.8-12.2,14.4-14.8,14.4-1.2,0-1.6-.4-1.6-1.2,0-1.4,3.6-6.6,3.6-14.2,0-6.2-2-8.2-8.8-8.2-10.4,0-18.6,7-19,13.6-.8,16.4,32.2,17.6,31,41.4-1,20.4-22.8,31-39,31s-26.2-6.6-26.2-17c0-8,5.4-14,13.6-14,4.8,0,7.4,2.4,7.4,6.2,0,7-10.6,5.8-10.6,13.6,0,5.2,4.4,9.2,16.4,9.2,13.4,0,21-8.6,21.4-15.8.8-13.8-16.8-19.6-25.8-29-1,1.8-2.2,3.8-3.4,5.8-.6,1-1.8-.2-1.2-1.2Z"/>
        <path class="cls-1" d="M425.19,117c1.2-2,2.4-4,3.4-6-2.4-3-4-6.4-3.8-10.6.6-13.8,17.4-29.6,37.6-29.6,11.6,0,19.8,3.2,19.8,11.6,0,7.8-12.2,14.4-14.8,14.4-1.2,0-1.6-.4-1.6-1.2,0-1.4,3.6-6.6,3.6-14.2,0-6.2-2-8.2-8.8-8.2-10.4,0-18.6,7-19,13.6-.8,16.4,32.2,17.6,31,41.4-1,20.4-22.8,31-39,31s-26.2-6.6-26.2-17c0-8,5.4-14,13.6-14,4.8,0,7.4,2.4,7.4,6.2,0,7-10.6,5.8-10.6,13.6,0,5.2,4.4,9.2,16.4,9.2,13.4,0,21-8.6,21.4-15.8.8-13.8-16.8-19.6-25.8-29-1,1.8-2.2,3.8-3.4,5.8-.6,1-1.8-.2-1.2-1.2Z"/>
        <path class="cls-1" d="M521.19,159.2c-16.2,0-32.8-7.8-32.8-28.8,0-29,31.4-59.6,56-59.6,10,0,18.2,4.2,18.2,13.2,0,14-21.6,35.2-51.2,35.2-1.2,5.8-2,11.4-2,16.6,0,14.4,6.2,19.4,15.4,19.4,14.2,0,36.4-16.2,49.6-38.2.6-1,1.8.2,1.2,1.2-13.2,22.6-35.8,41-54.4,41ZM511.79,117.2c26-.2,37.8-26.2,37.8-36.6,0-5.8-2-7.8-6.2-7.8-13,0-26.2,22.6-31.6,44.4Z"/>
        <path class="cls-1" d="M580.79,79.8c-.6,0-1-.4-1-1s.6-1,1.2-1.2c10-2.4,17.4-5,21-5,3,0,4.8,1.8,4.8,5.2,0,3.8-1.4,8-3.6,14.6l.4.2c9.4-14.2,19.4-21.8,27.6-21.8,7.6,0,13.8,3.6,13.8,12.6,0,11.8-16,22-19.6,22-1,0-1.4-.6-1.4-1.2,0-1.6,6-8.4,6-20.2,0-5-2-7.4-5-7.4-4,0-11.2,5.2-20.4,18.6-5.4,8-10.4,19.8-21.2,49.2-3,8.4-9.4,12.6-20.6,12.6-1.8,0-2.6-.6-2.6-1.6.2-1.2,1-2,3.4-8.4l16-44.6c4.6-12.4,6.2-17,6.2-19,.2-2.6-1.6-3.6-5-3.6Z"/>
        <path class="cls-1" d="M656.99,158.6c-10.2,0-16-5.2-16-14.2,0-6.8,3.8-15.8,7.8-27l11-31c3-8.4,12-13,23.4-13,1.4,0,2,.4,2,1.2,0,1.4-4.2,5.6-8,16.4l-14.6,41c-2.4,6.8-3.8,11.6-3.8,14.4,0,3.8,2,6,5.4,6,7,0,21.6-13.2,34.6-35.4.6-1,1.8.2,1.2,1.2-13.4,22.8-28.8,40.4-43,40.4ZM691.59,31.4c4.4,0,9,5,9,10.8s-9.6,13-15.6,13c-4.2,0-8.6-5-8.6-10.8s9.6-13,15.2-13Z"/>
        <path class="cls-1" d="M725.18,159.2c-16.2,0-32.8-7.8-32.8-28.8,0-29,31.4-59.6,56-59.6,10,0,18.2,4.2,18.2,13.2,0,14-21.6,35.2-51.2,35.2-1.2,5.8-2,11.4-2,16.6,0,14.4,6.2,19.4,15.4,19.4,14.2,0,36.4-16.2,49.6-38.2.6-1,1.8.2,1.2,1.2-13.2,22.6-35.8,41-54.4,41ZM715.79,117.2c26-.2,37.8-26.2,37.8-36.6,0-5.8-2-7.8-6.2-7.8-13,0-26.2,22.6-31.6,44.4Z"/>
      </g>
      <g>
        <path class="cls-1" d="M827.58,54c0,21.4,13,33.6,27.4,33.6,1.2,0,1.8.2,1.8,1.2,0,.8-.8,1-1.8,1-15.4,0-30-12.8-30-35.8,0-24.4,19.8-53.2,61.6-53.2,50.6,0,66.4,36.8,71.6,111.8,28.2-77.8,41.8-109,78.8-112,3.6-.2,4.6,0,4.6,1s-.6,1.4-1.8,1.6c-39.4,4.6-64.8,71.8-95.4,150.6-.8,2-1.4,3.2-2.4,3.2-1.2,0-1.4-1-1.6-3.6-6.2-64.4-12.4-104.2-24.6-126-24.4,50-33.2,130.2-76.8,130.2-18.2,0-29.2-10.2-30.8-20.6-.4-2.4,2-2.8,2.2-.8,1.4,9.4,11.6,17.4,23.2,17.4,38.6,0,58.6-84.2,81.2-128-8.2-13.8-19-19.8-34.2-19.8-32.6,0-53,24.6-53,48.2Z"/>
        <path class="cls-1" d="M1023.58,159.2c-16.2,0-32.8-7.8-32.8-28.8,0-29,31.4-59.6,56-59.6,10,0,18.2,4.2,18.2,13.2,0,14-21.6,35.2-51.2,35.2-1.2,5.8-2,11.4-2,16.6,0,14.4,6.2,19.4,15.4,19.4,14.2,0,36.4-16.2,49.6-38.2.6-1,1.8.2,1.2,1.2-13.2,22.6-35.8,41-54.4,41ZM1014.18,117.2c26-.2,37.8-26.2,37.8-36.6,0-5.8-2-7.8-6.2-7.8-13,0-26.2,22.6-31.6,44.4Z"/>
        <path class="cls-1" d="M1083.18,79.8c-.6,0-1-.4-1-1s.6-1,1.2-1.2c10-2.4,17.4-5,21-5,3,0,4.8,1.8,4.8,5.2,0,3.8-1.4,8-3.6,14.6l.4.2c9.4-14.2,19.4-21.8,27.6-21.8,7.6,0,13.8,3.6,13.8,12.6,0,11.8-16,22-19.6,22-1,0-1.4-.6-1.4-1.2,0-1.6,6-8.4,6-20.2,0-5-2-7.4-5-7.4-4,0-11.2,5.2-20.4,18.6-5.4,8-10.4,19.8-21.2,49.2-3,8.4-9.4,12.6-20.6,12.6-1.8,0-2.6-.6-2.6-1.6.2-1.2,1-2,3.4-8.4l16-44.6c4.6-12.4,6.2-17,6.2-19,.2-2.6-1.6-3.6-5-3.6Z"/>
        <path class="cls-1" d="M1159.38,158.6c-10.2,0-16-5.2-16-14.2,0-6.8,3.8-15.8,7.8-27l11-31c3-8.4,12-13,23.4-13,1.4,0,2,.4,2,1.2,0,1.4-4.2,5.6-8,16.4l-14.6,41c-2.4,6.8-3.8,11.6-3.8,14.4,0,3.8,2,6,5.4,6,7,0,21.6-13.2,34.6-35.4.6-1,1.8.2,1.2,1.2-13.4,22.8-28.8,40.4-43,40.4ZM1193.98,31.4c4.4,0,9,5,9,10.8s-9.6,13-15.6,13c-4.2,0-8.6-5-8.6-10.8s9.6-13,15.2-13Z"/>
        <path class="cls-1" d="M1263.17,158.6c-10.4,0-16.6-5-16.6-16.6,0-18,19.4-45.4,19.4-59.2,0-5.2-2-7.2-6-7.2-5,0-18,6.4-30,22.8-5.2,7.4-9.8,18.6-19.8,46-3,8.4-9.4,12.6-20.6,12.6-1.8,0-2.6-.6-2.6-1.6.2-1.2,1-2,3.4-8.4l16-44.6c4.6-12.4,6.2-17,6.2-19,.2-2.6-1.6-3.6-5-3.6-.6,0-1-.4-1-1s.6-1,1.2-1.2c10-2.4,17.4-5,21-5,3,0,4.8,1.8,4.8,5.2,0,4.6-1.8,9.8-4.8,18l.4.2c12-17,26.8-25.2,37.6-25.2,10,0,17.6,4.8,17.6,15.2,0,13.6-18.6,40-18.6,59.6,0,4.4,2.2,6.8,5.4,6.8,6.2,0,18.4-13.6,31.4-35.4.6-1,1.8.2,1.2,1.2-13,22.6-26.6,40.4-40.6,40.4Z"/>
        <path class="cls-1" d="M1082.66.53h0s-26.72,15.43-26.72,15.43c-17.58,10.15-23.61,32.63-13.45,50.21h0s26.72-15.43,26.72-15.43c17.58-10.15,23.61-32.63,13.45-50.21ZM1062.57,33.35c-6.33,7.52-11.98,15.12-18.65,22.56,3.6-19.07,19.22-38.03,37.3-45.11-6.05,7.95-12.45,14.93-18.66,22.55Z"/>
      </g>
    </g>
  </g>
</svg>